<svg width="301" height="173" viewBox="0 0 301 173" fill="none" xmlns="http://www.w3.org/2000/svg">
<path d="M225.495 35.4507C227.434 33.5004 227.442 30.3407 225.415 28.4812C210.851 15.1149 192.911 5.97543 173.513 2.09445C152.491 -2.11133 130.701 0.0472298 110.899 8.29718C91.0968 16.5471 74.1716 30.5179 62.2637 48.4429C50.3558 66.3678 44 87.4418 44 109L150.291 109C151.622 109 152.898 108.469 153.837 107.525L225.495 35.4507Z" fill="url(#paint0_linear_3_123)"/>
<path d="M257 109C257 98.4141 254.905 87.9319 250.834 78.1518C247.018 68.9836 241.536 60.6008 234.669 53.4213C233.908 52.6258 232.645 52.6275 231.865 53.404L176 109H257Z" fill="url(#paint1_linear_3_123)"/>
<path d="M2.91726 121.455H14.4545L24.2415 145.32H24.6932L34.4801 121.455H46.0174V160H36.9457V136.323H36.6257L27.3658 159.755H21.5689L12.3089 136.191H11.989V160H2.91726V121.455ZM85.8244 140.727C85.8244 144.968 85.0089 148.563 83.3777 151.512C81.7465 154.46 79.5382 156.7 76.7527 158.231C73.9797 159.762 70.868 160.527 67.4175 160.527C63.9544 160.527 60.8364 159.755 58.0634 158.212C55.2905 156.669 53.0884 154.429 51.4572 151.493C49.8386 148.544 49.0293 144.956 49.0293 140.727C49.0293 136.486 49.8386 132.891 51.4572 129.943C53.0884 126.994 55.2905 124.754 58.0634 123.224C60.8364 121.693 63.9544 120.928 67.4175 120.928C70.868 120.928 73.9797 121.693 76.7527 123.224C79.5382 124.754 81.7465 126.994 83.3777 129.943C85.0089 132.891 85.8244 136.486 85.8244 140.727ZM76.301 140.727C76.301 138.218 75.9434 136.097 75.2282 134.366C74.5255 132.634 73.5092 131.323 72.1792 130.432C70.8617 129.541 69.2745 129.096 67.4175 129.096C65.573 129.096 63.9858 129.541 62.6558 130.432C61.3257 131.323 60.3031 132.634 59.5879 134.366C58.8853 136.097 58.5339 138.218 58.5339 140.727C58.5339 143.237 58.8853 145.357 59.5879 147.089C60.3031 148.82 61.3257 150.132 62.6558 151.022C63.9858 151.913 65.573 152.359 67.4175 152.359C69.2745 152.359 70.8617 151.913 72.1792 151.022C73.5092 150.132 74.5255 148.82 75.2282 147.089C75.9434 145.357 76.301 143.237 76.301 140.727ZM95.3531 121.455L103.973 149.686H104.293L112.913 121.455H123.34L110.335 160H97.9316L84.9263 121.455H95.3531ZM134.421 121.455V160H125.105V121.455H134.421ZM137.885 160V121.455H164.761V129.021H147.201V136.925H163.388V144.51H147.201V152.434H164.761V160H137.885ZM168.211 160V121.455H184.284C187.17 121.455 189.585 121.862 191.53 122.678C193.488 123.493 194.956 124.635 195.934 126.103C196.926 127.571 197.421 129.272 197.421 131.204C197.421 132.672 197.114 133.983 196.499 135.137C195.884 136.279 195.037 137.227 193.958 137.979C192.879 138.732 191.631 139.259 190.213 139.56V139.937C191.769 140.012 193.205 140.432 194.523 141.198C195.853 141.963 196.919 143.03 197.722 144.397C198.525 145.752 198.927 147.359 198.927 149.216C198.927 151.286 198.4 153.137 197.346 154.768C196.292 156.386 194.767 157.666 192.772 158.607C190.777 159.536 188.356 160 185.508 160H168.211ZM177.527 152.49H183.287C185.307 152.49 186.794 152.108 187.747 151.342C188.713 150.577 189.196 149.51 189.196 148.143C189.196 147.152 188.964 146.298 188.5 145.583C188.036 144.855 187.377 144.297 186.524 143.908C185.671 143.507 184.648 143.306 183.456 143.306H177.527V152.49ZM177.527 137.302H182.684C183.701 137.302 184.604 137.132 185.395 136.794C186.185 136.455 186.8 135.966 187.239 135.326C187.691 134.686 187.917 133.914 187.917 133.011C187.917 131.718 187.459 130.702 186.543 129.962C185.627 129.221 184.391 128.851 182.835 128.851H177.527V137.302ZM209.359 160H199.346L212.352 121.455H224.755L237.76 160H227.747L218.694 131.166H218.393L209.359 160ZM208.023 144.83H228.952V151.907H208.023V144.83ZM259.169 133.011C259.044 131.63 258.486 130.558 257.494 129.792C256.516 129.014 255.117 128.625 253.297 128.625C252.093 128.625 251.089 128.782 250.286 129.096C249.483 129.41 248.881 129.842 248.479 130.395C248.078 130.934 247.871 131.555 247.858 132.258C247.833 132.835 247.946 133.343 248.197 133.782C248.46 134.221 248.837 134.61 249.326 134.949C249.828 135.275 250.43 135.564 251.133 135.815C251.836 136.066 252.626 136.286 253.504 136.474L256.817 137.227C258.724 137.641 260.405 138.193 261.861 138.883C263.329 139.573 264.559 140.395 265.55 141.348C266.554 142.302 267.313 143.4 267.827 144.642C268.342 145.884 268.605 147.277 268.618 148.82C268.605 151.254 267.99 153.344 266.773 155.088C265.556 156.832 263.806 158.168 261.522 159.097C259.251 160.025 256.509 160.489 253.297 160.489C250.073 160.489 247.262 160.006 244.865 159.04C242.469 158.074 240.606 156.606 239.276 154.636C237.946 152.666 237.262 150.175 237.224 147.164H246.145C246.221 148.406 246.553 149.441 247.143 150.27C247.733 151.098 248.542 151.725 249.571 152.152C250.612 152.578 251.817 152.792 253.184 152.792C254.439 152.792 255.506 152.622 256.384 152.283C257.275 151.945 257.959 151.474 258.435 150.872C258.912 150.27 259.157 149.579 259.169 148.801C259.157 148.074 258.931 147.453 258.492 146.938C258.053 146.411 257.375 145.96 256.459 145.583C255.556 145.194 254.401 144.837 252.996 144.51L248.968 143.569C245.631 142.804 243.002 141.568 241.082 139.862C239.163 138.143 238.209 135.821 238.222 132.898C238.209 130.514 238.849 128.425 240.141 126.63C241.434 124.836 243.222 123.437 245.505 122.433C247.789 121.429 250.393 120.928 253.316 120.928C256.302 120.928 258.893 121.436 261.089 122.452C263.298 123.456 265.01 124.867 266.227 126.687C267.444 128.506 268.065 130.614 268.091 133.011H259.169ZM270.938 160V121.455H297.814V129.021H280.254V136.925H296.44V144.51H280.254V152.434H297.814V160H270.938Z" fill="white"/>
<defs>
<linearGradient id="paint0_linear_3_123" x1="201" y1="5.5" x2="197.5" y2="89.5" gradientUnits="userSpaceOnUse">
<stop stop-color="#FF6B00"/>
<stop offset="1" stop-color="#C92400"/>
</linearGradient>
<linearGradient id="paint1_linear_3_123" x1="221" y1="52" x2="216.5" y2="109" gradientUnits="userSpaceOnUse">
<stop stop-color="#FFF500"/>
<stop offset="1" stop-color="#FF9900"/>
</linearGradient>
</defs>
</svg>
